# xmcd CD database file
#
# Track frame offsets:
#	150
#	10322
#	31367
#	44645
#
# Disc length: 838 seconds
#
# Revision: 0
# Processed by: cddbd v1.5PL3 Copyright (c) Steve Scherf et al.
# Submitted via: CDex 1.50
#
DISCID=2d034404
DTITLE=NICOTINE - GET THE LIBERTY
DYEAR=2002
DGENRE=Punk Rock
TTITLE0=GET THE LIBERTY
TTITLE1=DREAM OF SUMMER DAYS
TTITLE2=BASKET CASE
TTITLE3=WHAT'S UP
EXTD=YEAR: 2002
EXTT0=
EXTT1=
EXTT2=
EXTT3=
PLAYORDER=
